<?xml version="1.0" standalone="no"?>
<!DOCTYPE svg PUBLIC "-//W3C//DTD SVG 20010904//EN"
 "http://www.w3.org/TR/2001/REC-SVG-20010904/DTD/svg10.dtd">
<svg version="1.0" xmlns="http://www.w3.org/2000/svg"
 width="238.000000pt" height="256.000000pt" viewBox="0 0 238.000000 256.000000"
 preserveAspectRatio="xMidYMid meet">

<g transform="translate(0.000000,256.000000) scale(0.100000,-0.100000)"
fill="#000000" stroke="none">
<path d="M650 2441 c0 -46 7 -71 29 -115 17 -31 28 -56 25 -56 -3 0 -27 11
-54 25 -55 28 -63 30 -58 14 2 -6 35 -27 73 -47 59 -31 73 -44 92 -83 12 -25
25 -57 28 -72 6 -22 4 -25 -14 -20 -15 4 -30 -4 -54 -29 -38 -42 -77 -56 -77
-28 0 28 -11 51 -21 44 -5 -3 -9 -20 -9 -38 0 -70 -20 -44 -72 92 -13 36 -24
50 -30 44 -6 -6 3 -41 27 -101 33 -84 35 -95 24 -128 l-12 -37 -42 46 c-48 53
-100 88 -132 88 -36 0 -27 -18 15 -29 23 -7 56 -29 86 -60 l49 -49 -39 -11
c-56 -16 -60 -15 -103 24 -42 39 -51 42 -51 21 0 -8 17 -29 38 -46 36 -30 39
-31 108 -25 l71 6 27 -35 c15 -20 54 -50 87 -66 32 -17 59 -34 59 -39 0 -4 21
-35 48 -68 89 -112 156 -212 173 -258 10 -25 23 -53 30 -61 24 -29 -1 -26 -53
7 -43 28 -63 34 -122 38 -80 4 -121 27 -131 72 -7 29 -41 63 -75 74 -26 8 -33
37 -20 84 13 49 3 73 -43 101 -40 25 -76 28 -57 5 7 -8 18 -15 24 -15 7 0 22
-10 35 -21 21 -19 22 -27 16 -81 -8 -66 2 -86 55 -108 17 -7 33 -25 41 -43 7
-18 19 -40 27 -49 14 -16 13 -18 -2 -18 -32 0 -81 27 -114 64 -21 23 -41 36
-57 36 -15 0 -42 15 -65 36 -43 39 -59 40 -40 4 13 -25 67 -60 93 -60 11 0 33
-15 49 -32 58 -62 73 -68 189 -68 94 0 111 -3 160 -27 39 -20 48 -28 34 -30
-53 -8 -131 -27 -139 -35 -6 -4 -21 -8 -35 -8 -20 0 -84 -17 -100 -26 -1 -2 0
-7 3 -13 4 -6 21 -5 48 5 22 7 53 14 68 14 15 0 44 7 63 15 77 32 174 13 236
-46 30 -29 17 -34 -49 -20 -69 15 -115 14 -129 -3 -9 -11 -31 -13 -96 -9 -77
5 -87 4 -128 -20 -24 -14 -49 -33 -57 -41 -15 -19 -51 -21 -68 -4 -9 9 -16 8
-30 -5 -10 -9 -26 -17 -35 -17 -9 0 -17 -4 -17 -10 0 -13 43 -13 57 1 8 8 17
8 31 0 33 -18 57 -13 87 19 38 40 84 60 137 60 68 0 79 -14 29 -39 -43 -22
-47 -41 -8 -41 23 0 62 22 90 52 13 13 24 14 54 7 21 -5 56 -9 78 -9 59 0 70
-11 56 -50 -18 -52 -14 -72 11 -68 16 2 24 -4 31 -25 12 -36 8 -39 -32 -27
-22 6 -46 5 -79 -5 -64 -20 -85 -19 -100 6 -8 13 -19 18 -31 14 -10 -3 -24 1
-31 10 -17 20 -33 19 -55 -5 -22 -25 -13 -54 16 -47 13 4 31 -4 52 -22 18 -15
41 -31 52 -35 18 -7 14 -13 -36 -61 -67 -65 -120 -84 -171 -61 -18 8 -71 53
-118 100 l-84 86 12 45 c14 54 15 65 3 65 -5 0 -17 -20 -28 -45 l-20 -46 -26
40 c-15 22 -36 45 -47 51 -33 17 -25 -20 13 -66 18 -21 41 -52 51 -69 11 -16
43 -57 73 -91 29 -34 53 -68 53 -76 0 -22 -30 -44 -69 -52 -42 -8 -61 -23 -61
-47 0 -23 -1 -23 43 -4 20 8 48 15 61 15 16 0 30 8 37 23 18 34 27 36 67 15
28 -15 50 -18 93 -15 72 6 106 24 177 96 64 65 100 79 175 67 65 -11 82 -27
96 -93 19 -87 31 -111 61 -133 28 -20 58 -76 47 -87 -4 -3 -15 5 -26 18 -24
30 -49 19 -65 -29 -10 -27 -13 -29 -31 -20 -11 6 -26 20 -33 30 -7 10 -22 18
-32 18 -17 0 -19 5 -14 44 4 24 2 52 -4 62 -6 12 -6 27 0 46 6 16 7 32 4 36
-11 11 -41 -14 -44 -37 -2 -12 -9 -20 -15 -18 -8 2 -11 22 -9 55 4 47 2 52
-17 52 -27 0 -43 -39 -39 -94 3 -36 7 -43 40 -59 34 -17 37 -21 31 -50 -7 -40
-28 -57 -68 -57 -32 0 -70 32 -94 77 -13 26 -46 30 -55 7 -3 -9 3 -29 15 -45
27 -38 20 -45 -21 -20 -23 13 -43 18 -66 14 -25 -4 -35 -2 -40 11 -8 22 -34
20 -34 -2 0 -29 21 -42 70 -42 25 0 54 -7 64 -15 11 -8 30 -15 42 -15 12 0 41
-7 65 -15 36 -13 52 -14 90 -4 48 12 99 6 99 -12 0 -5 -14 -23 -32 -39 -23
-21 -29 -33 -22 -40 8 -8 21 -3 44 17 26 21 45 28 84 30 28 1 59 3 70 5 27 4
141 -136 157 -193 7 -24 12 -93 11 -153 l-1 -108 87 6 c48 4 99 9 114 12 27 5
27 6 13 34 -8 16 -15 40 -15 54 0 14 -14 41 -32 61 -17 20 -37 58 -43 83 -11
43 -10 50 11 83 25 40 22 54 -8 38 -30 -16 -33 -4 -12 43 10 23 19 45 18 48 0
3 19 17 41 31 39 25 69 71 89 135 6 20 75 74 94 74 4 0 17 6 27 14 19 13 19
15 2 33 -15 17 -15 22 -3 38 12 16 18 17 39 8 31 -15 51 1 36 29 -9 16 -6 18
30 18 38 0 63 22 41 35 -6 4 -7 17 -4 31 7 29 -16 42 -49 26 -12 -5 -38 -16
-57 -23 -44 -16 -68 -36 -87 -74 -9 -16 -37 -52 -62 -80 -26 -27 -62 -77 -79
-110 -23 -43 -46 -70 -81 -94 -27 -18 -52 -34 -56 -35 -3 0 -17 30 -30 68 -14
39 -39 90 -56 115 -28 37 -32 52 -31 98 1 30 4 58 7 63 3 5 29 16 58 24 28 8
68 27 87 42 19 14 59 37 88 50 52 24 64 40 38 50 -11 4 -13 20 -9 67 7 81 22
108 86 156 69 52 115 71 176 71 67 0 160 36 172 67 13 34 11 63 -3 63 -7 0
-33 -14 -57 -30 -50 -34 -94 -41 -84 -12 4 9 13 22 21 28 8 6 12 16 9 21 -11
18 126 25 175 9 102 -33 139 -29 81 10 l-28 18 25 7 c14 4 41 8 60 8 26 1 31
4 20 11 -10 6 -11 10 -2 10 6 0 12 4 12 8 0 10 -60 32 -88 32 -51 0 -121 22
-127 40 -4 11 -30 27 -70 41 -41 14 -65 29 -68 40 -8 29 13 171 29 201 19 36
18 51 -5 43 -13 -4 -20 0 -24 16 -8 31 3 77 20 83 9 4 12 13 8 27 -5 16 1 28
27 51 18 16 28 31 23 34 -6 2 -9 37 -6 85 3 65 1 80 -10 77 -8 -3 -13 -15 -11
-26 2 -12 -1 -22 -6 -22 -9 0 -24 25 -43 75 -9 23 -13 26 -16 12 -6 -26 15
-83 44 -118 l25 -30 -37 -76 -37 -77 -14 33 c-7 18 -18 30 -24 26 -6 -4 -4
-19 6 -43 28 -62 34 -150 26 -344 -2 -48 -18 -49 -99 -7 -32 17 -79 33 -104
36 -28 4 -58 17 -82 37 -56 44 -95 41 -179 -13 -38 -24 -68 -48 -68 -53 0 -5
9 -4 19 2 11 5 32 10 46 10 l27 0 -32 -26 c-33 -29 -34 -42 -1 -25 27 15 64
-3 82 -38 25 -48 102 -132 141 -152 20 -10 60 -24 88 -30 27 -6 50 -15 50 -21
0 -18 -76 -84 -130 -114 -55 -30 -69 -50 -90 -129 -7 -27 -21 -58 -31 -67 -9
-9 -20 -31 -24 -47 -3 -17 -20 -42 -37 -56 -27 -23 -37 -25 -134 -25 l-104 0
0 30 c0 38 24 98 51 126 14 15 19 32 17 55 -3 36 -20 43 -27 12 -4 -25 -21
-44 -32 -37 -5 3 -9 20 -9 38 0 19 -6 39 -14 45 -24 20 -35 -16 -29 -89 4 -51
2 -68 -9 -78 -21 -17 -31 -3 -58 78 -12 35 -27 75 -35 90 -17 34 -45 204 -45
278 0 50 6 73 35 128 19 37 35 72 35 79 0 7 -10 24 -21 39 l-21 27 21 23 c11
12 21 27 21 32 0 6 17 15 37 20 50 12 59 38 9 29 -32 -6 -36 -5 -41 18 -8 28
-41 64 -52 54 -3 -4 1 -15 10 -25 23 -25 21 -84 -3 -115 -24 -30 -25 -47 -5
-73 20 -26 18 -54 -4 -83 l-19 -25 5 26 c6 31 -15 73 -56 112 -30 29 -30 31
-24 101 5 62 2 83 -21 149 -19 56 -24 87 -20 116 7 43 -1 90 -15 90 -19 0 -6
-173 18 -235 19 -51 22 -71 16 -128 -5 -59 -4 -72 12 -90 17 -20 17 -20 0 -14
-10 4 -20 7 -23 7 -2 0 -13 19 -25 43 -12 23 -32 56 -44 72 -30 41 -44 90 -44
152 1 28 -3 59 -9 69 -6 11 -6 29 -1 48 12 40 11 66 -1 66 -5 0 -12 -11 -16
-25 -10 -39 -21 -29 -28 25 -8 58 -26 67 -26 13 l0 -37 -35 58 c-39 65 -55
114 -55 169 0 20 -4 37 -10 37 -6 0 -10 -26 -10 -59z m148 -408 c6 -16 15 -44
21 -63 6 -19 25 -55 41 -80 25 -37 27 -46 14 -48 -8 -2 -23 3 -33 12 -19 17
-41 21 -41 8 0 -16 60 -52 88 -52 19 0 38 -11 59 -32 56 -60 63 -78 63 -153 0
-38 7 -99 14 -135 8 -36 13 -66 12 -67 -1 -2 -17 16 -34 40 -30 40 -91 119
-111 143 -18 22 -51 94 -51 112 0 30 -58 113 -122 175 -33 31 -61 57 -64 57
-14 0 0 -40 22 -61 35 -32 61 -70 79 -113 l15 -35 -78 54 c-42 29 -88 64 -101
78 l-23 26 18 38 c16 32 27 41 75 56 38 12 60 25 69 42 19 35 54 33 68 -2z
m229 -288 c9 -25 -4 -29 -17 -6 -7 15 -7 21 0 21 6 0 13 -7 17 -15z m871 -332
c-2 -10 -13 -19 -26 -21 -24 -4 -25 -2 -16 22 9 23 46 21 42 -1z"/>
</g>
</svg>
